<svg width="50" height="50" viewBox="0 0 50 50" fill="none" xmlns="http://www.w3.org/2000/svg">
<path d="M25 37.5C24.1712 37.5 23.3763 37.8292 22.7903 38.4153C22.2042 39.0013 21.875 39.7962 21.875 40.625V47.9167H28.125V40.625C28.125 39.7962 27.7958 39.0013 27.2097 38.4153C26.6237 37.8292 25.8288 37.5 25 37.5Z" fill="#05B46E"/>
<path d="M4.16667 46.875C4.16667 47.1513 4.27641 47.4162 4.47177 47.6116C4.66712 47.8069 4.93207 47.9167 5.20833 47.9167H11.4583V29.1667H4.16667V46.875Z" fill="#05B46E"/>
<path d="M7.81249 17.7083C6.14583 18.75 3.12499 22.1771 3.12499 23.9583C3.08518 24.5577 3.19583 25.1576 3.44689 25.7034C3.69794 26.2492 4.08143 26.7235 4.56249 27.0833H11.0625C11.5436 26.7235 11.927 26.2492 12.1781 25.7034C12.4292 25.1576 12.5398 24.5577 12.5 23.9583C12.5 22.1458 9.47916 18.6771 7.81249 17.7083Z" fill="#05B46E"/>
<path d="M13.5417 47.9167H19.7917V40.625C19.7917 39.2437 20.3404 37.9189 21.3171 36.9422C22.2939 35.9654 23.6187 35.4167 25 35.4167C26.3813 35.4167 27.7061 35.9654 28.6828 36.9422C29.6596 37.9189 30.2083 39.2437 30.2083 40.625V47.9167H36.4583V29.1667H13.5417V47.9167Z" fill="#05B46E"/>
<path d="M28.5833 11.3958C27.6354 10.9271 26.7708 10.5 26.0417 10.0521V8.33333H27.0833C27.3596 8.33333 27.6245 8.22358 27.8199 8.02823C28.0152 7.83288 28.125 7.56793 28.125 7.29166C28.125 7.01539 28.0152 6.75044 27.8199 6.55509C27.6245 6.35974 27.3596 6.25 27.0833 6.25H25C24.7237 6.25 24.4588 6.14025 24.2634 5.9449C24.0681 5.74955 23.9583 5.4846 23.9583 5.20833C23.9583 4.93206 24.0681 4.66711 24.2634 4.47176C24.4588 4.27641 24.7237 4.16666 25 4.16666H27.0833C27.3596 4.16666 27.6245 4.05692 27.8199 3.86156C28.0152 3.66621 28.125 3.40126 28.125 3.12499C28.125 2.84873 28.0152 2.58378 27.8199 2.38843C27.6245 2.19307 27.3596 2.08333 27.0833 2.08333H25C24.2671 2.08901 23.5596 2.35209 23.001 2.82657C22.4425 3.30106 22.0685 3.95675 21.9444 4.67905C21.8203 5.40134 21.954 6.14428 22.3221 6.77798C22.6902 7.41169 23.2694 7.89585 23.9583 8.14583V10.0521C23.2292 10.5 22.3646 10.9375 21.4167 11.3958C17.9062 13.125 13.5417 16.3125 13.5417 20.8333C13.5453 20.8819 13.5453 20.9306 13.5417 20.9792C13.993 21.5634 14.3449 22.218 14.5833 22.9167H35.4167C35.6551 22.218 36.007 21.5634 36.4583 20.9792C36.4547 20.9306 36.4547 20.8819 36.4583 20.8333C36.4583 16.3125 32.0937 13.125 28.5833 11.3958Z" fill="#05B46E"/>
<path d="M42.1875 17.7083C40.5208 18.75 37.5 22.1771 37.5 23.9583C37.4602 24.5577 37.5708 25.1576 37.8219 25.7034C38.0729 26.2492 38.4564 26.7235 38.9375 27.0833H45.4375C45.9185 26.7235 46.302 26.2492 46.5531 25.7034C46.8041 25.1576 46.9148 24.5577 46.875 23.9583C46.875 22.1458 43.8542 18.6771 42.1875 17.7083Z" fill="#05B46E"/>
<path d="M14.5833 25C14.4645 25.7334 14.214 26.4392 13.8437 27.0833H36.1562C35.786 26.4392 35.5355 25.7334 35.4167 25H14.5833Z" fill="#05B46E"/>
<path d="M38.5417 47.9167H44.7917C45.0679 47.9167 45.3329 47.8069 45.5282 47.6116C45.7236 47.4162 45.8333 47.1513 45.8333 46.875V29.1667H38.5417V47.9167Z" fill="#05B46E"/>
</svg>
