<svg width="50" height="50" viewBox="0 0 50 50" fill="none" xmlns="http://www.w3.org/2000/svg">
<path d="M14.5833 45.8333H12.5L9.37501 43.8125V42.7083H4.16667V44.6146C4.1721 45.4869 4.52032 46.322 5.13616 46.9398C5.752 47.5576 6.58607 47.9085 7.45834 47.9167H14.5833C14.8596 47.9167 15.1246 47.8069 15.3199 47.6116C15.5153 47.4162 15.625 47.1513 15.625 46.875C15.625 46.5987 15.5153 46.3338 15.3199 46.1384C15.1246 45.9431 14.8596 45.8333 14.5833 45.8333Z" fill="#05B46E"/>
<path d="M39.4167 6.83334L37.0104 8.55209C36.8361 8.67306 36.6289 8.73788 36.4167 8.73788C36.2044 8.73788 35.9973 8.67306 35.8229 8.55209L35.4167 8.33334V12.5H36.4583C36.7346 12.5 36.9996 12.6098 37.1949 12.8051C37.3903 13.0005 37.5 13.2654 37.5 13.5417V15.2708C37.5014 15.316 37.5116 15.3604 37.5301 15.4016C37.5486 15.4428 37.5751 15.4799 37.608 15.5109C37.6409 15.5419 37.6796 15.566 37.7218 15.582C37.764 15.598 37.809 15.6056 37.8542 15.6042C40.1337 15.5217 42.3957 15.1721 44.5938 14.5625L39.4167 6.83334Z" fill="#05B46E"/>
<path d="M14.5833 27.0833V32.2917L15.3333 31.7708C15.7622 31.5204 16.1137 31.1564 16.349 30.7189C16.5842 30.2815 16.6942 29.7876 16.6667 29.2917V25L14.5833 27.0833Z" fill="#05B46E"/>
<path d="M2.08333 13.4375C2.08333 15.625 2.08333 40.625 2.08333 40.625H12.5C12.5 40.625 12.5 24.7813 12.5 20.8333C12.5 18.3438 13.1354 16.6667 15.625 16.6667V4.16667C9.375 4.41667 2.08333 6.92709 2.08333 13.4375Z" fill="#05B46E"/>
<path d="M17.7083 16.6667H20.8333L23.1458 13.9063C23.2296 13.7947 23.335 13.7011 23.4557 13.6311C23.5763 13.561 23.7099 13.5159 23.8483 13.4985C23.9867 13.481 24.1273 13.4915 24.2615 13.5294C24.3958 13.5673 24.5211 13.6318 24.63 13.719C24.7389 13.8063 24.8292 13.9145 24.8954 14.0373C24.9617 14.1601 25.0026 14.295 25.0157 14.4339C25.0288 14.5728 25.0139 14.7129 24.9719 14.846C24.9298 14.979 24.8614 15.1022 24.7708 15.2084L18.75 22.9167V27.0834L33.3333 13.5417V7.29169C28.3907 5.20163 23.0746 4.13843 17.7083 4.16669V16.6667Z" fill="#05B46E"/>
<path d="M48.7708 10.4167L45.1458 4.93749C44.9912 4.69048 44.7737 4.48895 44.5157 4.35352C44.2576 4.21809 43.9682 4.1536 43.6771 4.16666C43.3253 4.17156 42.9836 4.28427 42.6979 4.48958L41.1146 5.625L46.6354 13.9062C47.1771 13.6875 47.6771 13.4583 48.0833 13.2396C48.3937 13.0765 48.6543 12.8327 48.8376 12.5338C49.021 12.235 49.1202 11.8922 49.125 11.5417C49.1221 11.1397 48.9987 10.7478 48.7708 10.4167Z" fill="#05B46E"/>
</svg>
