<svg width="50" height="50" viewBox="0 0 50 50" fill="none" xmlns="http://www.w3.org/2000/svg">
<path d="M25 34.375C22.6979 34.375 20.8333 36.8958 20.8333 38.5417V46.875C20.8333 47.1513 20.9431 47.4162 21.1384 47.6116C21.3338 47.8069 21.5987 47.9167 21.875 47.9167C22.1513 47.9167 22.4162 47.8069 22.6116 47.6116C22.8069 47.4162 22.9167 47.1513 22.9167 46.875V43.75H23.9583V46.875C23.9583 47.1513 24.0681 47.4162 24.2634 47.6116C24.4588 47.8069 24.7237 47.9167 25 47.9167C25.2763 47.9167 25.5412 47.8069 25.7366 47.6116C25.9319 47.4162 26.0417 47.1513 26.0417 46.875V43.75H27.0833V46.875C27.0833 47.1513 27.1931 47.4162 27.3884 47.6116C27.5838 47.8069 27.8487 47.9167 28.125 47.9167C28.4013 47.9167 28.6662 47.8069 28.8616 47.6116C29.0569 47.4162 29.1667 47.1513 29.1667 46.875V38.5417C29.1667 36.8958 27.3021 34.375 25 34.375Z" fill="#05B46E"/>
<path d="M10.5208 25.6667C10.6354 25.6667 10.7396 25.6667 10.8542 25.6667V25.6146C11.4873 24.9066 11.8728 24.0118 11.9525 23.0654C12.0322 22.119 11.8018 21.1723 11.296 20.3684C10.7902 19.5645 10.0366 18.9471 9.14892 18.6093C8.26125 18.2715 7.28776 18.2318 6.3755 18.496C5.46324 18.7603 4.66177 19.3143 4.09214 20.0743C3.52251 20.8343 3.21567 21.759 3.21797 22.7088C3.22027 23.6586 3.53157 24.5818 4.10487 25.339C4.67816 26.0963 5.4823 26.6464 6.39583 26.9063C7.61265 26.0829 9.05172 25.6505 10.5208 25.6667Z" fill="#05B46E"/>
<path d="M28.9896 4.04167C28.731 3.17098 28.1951 2.40861 27.4633 1.87063C26.7315 1.33265 25.844 1.04852 24.9358 1.06149C24.0276 1.07446 23.1485 1.38383 22.4324 1.9425C21.7163 2.50117 21.2023 3.27853 20.9688 4.15625C21.7639 5.31526 22.1889 6.68819 22.1875 8.09375C22.1875 8.1875 22.1875 8.27083 22.1875 8.36458C22.9578 9.04111 23.9439 9.42108 24.969 9.43635C25.9941 9.45162 26.9911 9.1012 27.7813 8.44792H27.8333C27.8333 8.34375 27.8333 8.23958 27.8333 8.125C27.8209 6.71446 28.2388 5.33364 29.0313 4.16667C29.0313 4.16667 29 4.07292 28.9896 4.04167Z" fill="#05B46E"/>
<path d="M14.3854 31.3958C14.5132 30.5535 14.3797 29.6923 14.003 28.9282C13.6262 28.1641 13.0243 27.5339 12.2783 27.1224C11.5324 26.711 10.6782 26.5381 9.83094 26.627C8.98367 26.7159 8.18402 27.0624 7.53975 27.6198C6.89548 28.1772 6.43754 28.9187 6.22765 29.7443C6.01776 30.57 6.066 31.4401 6.36588 32.2375C6.66575 33.0349 7.20284 33.7213 7.90478 34.204C8.60672 34.6868 9.43976 34.9427 10.2917 34.9375C10.4774 34.9355 10.6616 34.971 10.8333 35.0416C11.5162 33.4225 12.7846 32.1206 14.3854 31.3958Z" fill="#05B46E"/>
<path d="M38.7292 17.7083C38.7292 17.7083 38.7917 17.7604 38.8229 17.7917C40.2922 16.9265 42.0398 16.6651 43.6979 17.0625C44.1992 16.5844 44.5733 15.989 44.7865 15.3299C44.9998 14.6709 45.0453 13.9691 44.9191 13.288C44.7929 12.6069 44.4988 11.9681 44.0636 11.4292C43.6283 10.8904 43.0656 10.4685 42.4264 10.2018C41.7871 9.93517 41.0914 9.83207 40.4023 9.90188C39.7131 9.97168 39.0523 10.2122 38.4794 10.6017C37.9066 10.9911 37.4399 11.5172 37.1216 12.1324C36.8033 12.7476 36.6433 13.4325 36.6562 14.125C36.6596 14.8511 36.8526 15.5638 37.2162 16.1923C37.5798 16.8209 38.1014 17.3435 38.7292 17.7083Z" fill="#05B46E"/>
<path d="M33.4167 12.5C34.3019 12.499 35.1647 12.2223 35.8854 11.7083C36.2979 11.0217 36.8225 10.409 37.4375 9.89582C37.4285 9.80576 37.4285 9.71504 37.4375 9.62498C37.7408 8.76223 37.7613 7.82527 37.496 6.95007C37.2308 6.07488 36.6935 5.307 35.9622 4.75787C35.2309 4.20874 34.3436 3.90694 33.4291 3.89627C32.5147 3.88561 31.6206 4.16662 30.8767 4.69854C30.1328 5.23046 29.5777 5.9856 29.2921 6.85437C29.0065 7.72313 29.0051 8.66032 29.2882 9.52991C29.5713 10.3995 30.1242 11.1562 30.8666 11.6903C31.6089 12.2244 32.5022 12.508 33.4167 12.5Z" fill="#05B46E"/>
<path d="M7.77083 17.1458C8.99211 17.1523 10.1908 17.4753 11.25 18.0833C11.25 18.0833 11.3021 18.0208 11.3437 18C11.9961 17.6234 12.5378 17.0817 12.9145 16.4294C13.2911 15.777 13.4895 15.0371 13.4896 14.2838C13.4897 13.5306 13.2915 12.7905 12.915 12.1381C12.5385 11.4857 11.9969 10.9439 11.3446 10.5671C10.6924 10.1903 9.95246 9.99186 9.1992 9.99164C8.44594 9.99141 7.70589 10.1894 7.05342 10.5658C6.40094 10.9422 5.85903 11.4837 5.48212 12.1359C5.10522 12.7881 4.90661 13.528 4.90625 14.2812C4.9048 14.8498 5.01745 15.4129 5.23752 15.9372C5.4576 16.4614 5.78064 16.9362 6.1875 17.3333C6.70657 17.2116 7.23769 17.1487 7.77083 17.1458Z" fill="#05B46E"/>
<path d="M39.8021 26.6041C39.197 26.5838 38.5951 26.7001 38.041 26.9442C37.487 27.1884 36.9951 27.5542 36.6018 28.0146C36.2085 28.4749 35.924 29.0179 35.7693 29.6032C35.6146 30.1886 35.5938 30.8013 35.7083 31.3958C37.313 32.1184 38.5855 33.4207 39.2708 35.0416C39.4426 34.971 39.6268 34.9355 39.8125 34.9375C40.9176 34.9375 41.9774 34.4985 42.7588 33.7171C43.5402 32.9357 43.9792 31.8759 43.9792 30.7708C43.9792 29.6657 43.5402 28.6059 42.7588 27.8245C41.9774 27.0431 40.9176 26.6041 39.8125 26.6041H39.8021Z" fill="#05B46E"/>
<path d="M42.3854 18.3959C41.538 18.3894 40.7071 18.6297 39.994 19.0875C39.2809 19.5453 38.7165 20.2008 38.3697 20.974C38.0229 21.7472 37.9087 22.6046 38.0409 23.4416C38.1732 24.2786 38.5462 25.059 39.1146 25.6875V25.7396C39.2292 25.7396 39.3333 25.7396 39.4479 25.7396C40.9097 25.739 42.3372 26.1821 43.5417 27.0105C44.5514 26.7227 45.4232 26.0798 45.9965 25.2002C46.5697 24.3205 46.8058 23.2633 46.6612 22.2234C46.5166 21.1834 46.0011 20.2307 45.2097 19.5408C44.4182 18.8509 43.4041 18.4701 42.3542 18.4688L42.3854 18.3959Z" fill="#05B46E"/>
<path d="M34.1146 40.4896C36.318 40.4896 38.1042 38.7034 38.1042 36.5C38.1042 34.2966 36.318 32.5104 34.1146 32.5104C31.9112 32.5104 30.125 34.2966 30.125 36.5C30.125 38.7034 31.9112 40.4896 34.1146 40.4896Z" fill="#05B46E"/>
<path d="M16.4896 3.86456C15.8025 3.86559 15.1257 4.03116 14.5157 4.34744C13.9057 4.66371 13.3804 5.12148 12.9836 5.68244C12.5869 6.2434 12.3303 6.89123 12.2352 7.57172C12.1402 8.2522 12.2096 8.94555 12.4375 9.59373C12.4466 9.68378 12.4466 9.77451 12.4375 9.86456C13.0525 10.3777 13.5772 10.9904 13.9896 11.6771C14.71 12.1916 15.5731 12.4684 16.4583 12.4687C17.5613 12.4144 18.6012 11.938 19.3627 11.1381C20.1241 10.3383 20.5488 9.2762 20.5488 8.17185C20.5488 7.06751 20.1241 6.00545 19.3627 5.20559C18.6012 4.40572 17.5613 3.9293 16.4583 3.87498L16.4896 3.86456Z" fill="#05B46E"/>
<path d="M15.9688 40.4896C18.1721 40.4896 19.9583 38.7034 19.9583 36.5C19.9583 34.2966 18.1721 32.5104 15.9688 32.5104C13.7654 32.5104 11.9792 34.2966 11.9792 36.5C11.9792 38.7034 13.7654 40.4896 15.9688 40.4896Z" fill="#05B46E"/>
</svg>
